<svg xmlns="http://www.w3.org/2000/svg" xmlns:xlink="http://www.w3.org/1999/xlink" xmlns:svgjs="http://svgjs.com/svgjs" version="1.1" width="512" height="512" x="0" y="0" viewBox="0 0 512 512" style="enable-background:new 0 0 512 512" xml:space="preserve"><g><path d="m86.926 244.031c1.42 1.4 5.69 5.6 12.158 5.6h.183c6.468 0 10.739-4.2 12.158-5.6l.252-.256c39.1-41.095 111.884-117.587 71.931-193.608l-.042-.079c-16.266-30.352-48.539-49.543-84.223-50.088h-.167-.167c-35.684.545-67.957 19.736-84.266 50.167-39.953 76.021 32.829 152.513 71.931 193.608zm-52.751-183.551c12.47-23.268 37.366-38 65-38.478 27.617.477 52.5 15.194 64.979 38.437 29.341 55.9-17.276 114.032-64.979 164.548-47.715-50.529-94.347-108.668-65-164.507z" fill="#000000" data-original="#000000"/><path d="m152.482 97.07a53.307 53.307 0 1 0 -53.306 53.308 53.366 53.366 0 0 0 53.306-53.308zm-84.615 0a31.308 31.308 0 1 1 31.309 31.309 31.343 31.343 0 0 1 -31.309-31.309z" fill="#000000" data-original="#000000"/><path d="m400.576 415.3c1.419 1.4 5.689 5.6 12.157 5.6h.184c6.464 0 10.736-4.2 12.156-5.6l.253-.259c39.1-41.1 111.884-117.588 71.931-193.608l-.042-.079c-16.266-30.35-48.539-49.542-84.223-50.084h-.167-.167c-35.685.542-67.958 19.734-84.266 50.163-39.953 76.022 32.83 152.514 71.932 193.608zm-52.752-183.548c12.47-23.267 37.366-38 65-38.477 27.618.477 52.5 15.194 64.978 38.436 29.342 55.9-17.275 114.032-64.978 164.548-47.715-50.527-94.346-108.666-65-164.507z" fill="#000000" data-original="#000000"/><path d="m466.131 268.343a53.307 53.307 0 1 0 -53.306 53.307 53.367 53.367 0 0 0 53.306-53.307zm-84.614 0a31.308 31.308 0 1 1 31.308 31.308 31.344 31.344 0 0 1 -31.308-31.308z" fill="#000000" data-original="#000000"/><path d="m449.106 457.74a39.23 39.23 0 0 0 -74.057 4.418h-213.465a21.177 21.177 0 0 1 0-42.353h64.6a64.181 64.181 0 1 0 0-128.362h-89.062a39.316 39.316 0 1 0 -.6 22h89.663a42.182 42.182 0 1 1 0 84.363h-64.6a43.175 43.175 0 0 0 0 86.35h213.692c.364 1.193.782 2.379 1.267 3.554a39.254 39.254 0 0 0 72.562-29.969zm-343.343-140.34a17.255 17.255 0 1 1 9.36-22.534 17.274 17.274 0 0 1 -9.36 22.534zm313.649 171.273a17.254 17.254 0 1 1 9.361-22.534 17.144 17.144 0 0 1 -9.361 22.534z" fill="#000000" data-original="#000000"/></g></svg>